<?xml version="1.0" encoding="UTF-8" standalone="no"?>
<svg width="314px" height="44px" viewBox="0 0 314 44" version="1.1" xmlns="http://www.w3.org/2000/svg" xmlns:xlink="http://www.w3.org/1999/xlink" xmlns:sketch="http://www.bohemiancoding.com/sketch/ns">
    <!-- Generator: Sketch 3.4.4 (17249) - http://www.bohemiancoding.com/sketch -->
    <title>Group Copy</title>
    <desc>Created with Sketch.</desc>
    <defs></defs>
    <g id="Home." stroke="none" stroke-width="1" fill="none" fill-rule="evenodd" sketch:type="MSPage">
        <g id="352-home-desktop---1440px" sketch:type="MSArtboardGroup" transform="translate(-563.000000, -4729.000000)">
            <g id="Group" sketch:type="MSLayerGroup" transform="translate(358.000000, 4729.000000)">
                <g id="Group-Copy" transform="translate(205.000000, 0.000000)" sketch:type="MSShapeGroup">
                    <path d="M21.9138034,40.524703 C20.7446664,40.524703 19.5978996,40.1189236 18.6854312,39.3824873 C18.4081585,39.1588945 18.1538447,38.9057261 17.927788,38.63008 L4.60810367,25.1944048 C3.96407756,24.6644073 3.37067874,24.066977 2.8438018,23.4139442 L2.70899195,23.2773042 C2.59714098,23.1643248 2.50766021,23.0336 2.44408176,22.8910448 C0.92408596,20.7893915 0.122291118,18.3103515 0.122291118,15.7005867 C0.122291118,8.94193455 5.59356958,3.44380121 12.3199337,3.44380121 C16.1087381,3.44380121 19.6249793,5.19764364 21.9138034,8.13037576 C24.2038048,5.19764364 27.720046,3.44380121 31.5082618,3.44380121 C38.2340371,3.44380121 43.7059043,8.94193455 43.7059043,15.7005867 C43.7059043,19.1704145 42.232415,22.4899976 39.6627861,24.8134691 L25.8580218,38.6839079 C25.6572787,38.924063 25.4323994,39.1464727 25.1892707,39.3464048 C24.2709154,40.1053188 23.1070766,40.524703 21.9138034,40.524703 L21.9138034,40.524703 Z M4.79412949,21.6110061 C4.81885445,21.6370327 4.84240202,21.6642424 4.86477221,21.6926352 C5.29981361,22.2374206 5.79254657,22.7342933 6.33001991,23.17024 C6.36651865,23.2004073 6.40242869,23.2317576 6.43539529,23.2660655 L19.8522134,36.7999321 C19.8869461,36.83424 19.9199127,36.8715055 19.9499358,36.9099539 C20.0664963,37.0560582 20.1983627,37.1897406 20.3443577,37.3074521 C21.2538826,38.0415224 22.6102228,38.0320582 23.507974,37.2891152 C23.636897,37.1826424 23.7528688,37.0667055 23.8553007,36.9413042 C23.8829691,36.9075879 23.9124036,36.8756461 23.9424267,36.8448873 L37.8148904,22.9064242 C37.8319623,22.8886788 37.849623,22.8715248 37.8684611,22.8555539 C39.8947297,21.0342788 41.0568024,18.42688 41.0568024,15.7005867 C41.0568024,10.4100752 36.7729103,6.10561939 31.5082618,6.10561939 C27.977892,6.10561939 24.7495198,8.05170424 23.081763,11.18496 C22.8515854,11.6185406 22.4024155,11.888863 21.9138034,11.888863 C21.4251912,11.888863 20.9760213,11.6185406 20.7458438,11.18496 C19.0792643,8.05170424 15.8503035,6.10561939 12.3199337,6.10561939 C7.05469645,6.10561939 2.77139302,10.4100752 2.77139302,15.7005867 C2.77139302,17.8235345 3.44897442,19.8358691 4.73113974,21.5205042 C4.75350993,21.55008 4.77470275,21.5796558 4.79412949,21.6110061 L4.79412949,21.6110061 Z" id="Fill-2" fill="#1363EE"></path>
                    <path d="M299.54086,43.8129358 C291.656544,43.8129358 285.241008,37.3778424 285.223936,29.4621867 C285.02437,24.8105115 287.362644,20.6279079 289.624389,16.5825358 C291.277428,13.62496 292.839221,10.8306424 293.319591,8.05347879 C293.900039,4.69840485 293.044085,1.79347394 293.035843,1.7644897 C292.873365,1.22266182 293.068221,0.635287273 293.523278,0.302264242 C293.978335,-0.0307587879 294.592926,-0.03904 295.056814,0.282152727 C295.307595,0.456649697 301.185658,4.65167515 299.187058,12.6820848 C298.867988,13.8521018 298.531847,15.3764364 298.531847,15.85024 C298.531847,17.2574545 299.67096,18.4020364 301.072041,18.4020364 C302.472533,18.4020364 303.612235,17.2574545 303.612235,15.85024 C303.612235,12.6128776 301.392288,9.63992242 301.369918,9.61034667 C300.970786,9.08153212 301.019059,8.33918061 301.484123,7.86833455 C301.949188,7.39689697 302.687993,7.34188606 303.217225,7.73820121 C303.651678,8.06412606 313.858373,15.8733091 313.858373,29.4320194 C313.858373,37.3618715 307.435772,43.8129358 299.54086,43.8129358 L299.54086,43.8129358 Z M296.170614,5.81814303 C296.161783,6.65809455 296.092907,7.5660703 295.92984,8.50953697 C295.371174,11.7368436 293.623944,14.8630012 291.933817,17.8856436 C289.850445,21.6139636 287.695842,25.4688679 287.871861,29.3716848 C287.872449,29.3912048 287.873038,29.4119079 287.873038,29.4320194 C287.873038,35.8943224 293.107075,41.1511176 299.54086,41.1511176 C305.974646,41.1511176 311.209271,35.8943224 311.209271,29.4320194 C311.209271,23.1170036 308.666133,18.115743 306.200114,14.7512048 C306.239556,15.1114376 306.261337,15.4787685 306.261337,15.85024 C306.261337,18.7250036 303.93366,21.0638545 301.072041,21.0638545 C298.211011,21.0638545 295.882745,18.7250036 295.882745,15.85024 C295.882745,14.7772315 296.501457,12.4602667 296.625082,12.0065745 C297.266753,9.42579394 296.867622,7.35904 296.170614,5.81814303 L296.170614,5.81814303 Z" id="Fill-3" fill="#88E873"></path>
                    <path d="M149.141926,42.7913891 C148.867008,42.7913891 148.594445,42.7056194 148.363679,42.5370376 C147.955717,42.2389139 147.751442,41.734943 147.836213,41.2351127 L150.133279,27.7822836 L140.405777,18.2559321 C140.04491,17.9027976 139.915398,17.3733915 140.070812,16.8918982 C140.226815,16.4098133 140.641252,16.0584533 141.140461,15.985697 L154.582593,14.0224582 L160.594288,1.7840097 C160.817401,1.32972606 161.277756,1.0422497 161.782263,1.0422497 C162.286181,1.0422497 162.747125,1.32972606 162.970238,1.7840097 L168.980756,14.0224582 L182.422888,15.985697 C182.922096,16.0584533 183.336533,16.4098133 183.492536,16.8918982 C183.64795,17.3733915 183.518438,17.9027976 183.157572,18.2559321 L173.430658,27.7822836 L175.726547,41.2357042 C175.811907,41.734943 175.607631,42.2395055 175.19967,42.5370376 C174.792297,42.8357527 174.250114,42.8747927 173.805065,42.6381867 L161.782263,36.286497 L149.758284,42.6381867 C149.564605,42.7411103 149.353266,42.7913891 149.141926,42.7913891 L149.141926,42.7913891 Z M144.17692,18.2322715 L152.480972,26.3644218 C152.792977,26.6702352 152.936029,27.1109139 152.862443,27.54272 L150.901518,39.0269867 L161.165905,33.6051588 C161.550908,33.4004945 162.013029,33.4004945 162.398621,33.6051588 L172.66183,39.0269867 L170.701495,27.5421285 C170.627909,27.1109139 170.770371,26.6702352 171.082965,26.3644218 L179.386428,18.2322715 L167.911107,16.5559176 C167.479598,16.493217 167.106369,16.22112 166.913868,15.8283539 L161.782263,5.38042182 L156.649481,15.8283539 C156.456391,16.22112 156.08375,16.493217 155.652241,16.5559176 L144.17692,18.2322715 L144.17692,18.2322715 Z" id="Fill-4" fill="#27A0D2"></path>
                    <path d="M83.593726,43.8720873 C82.5864786,43.8720873 81.7664344,43.0481067 81.7664344,42.0360242 C81.7664344,41.92896 81.7764421,41.8213042 81.827658,41.5622206 C81.8317789,41.537377 81.8370771,41.5131248 81.8435527,41.4894642 L85.727136,26.272737 L77.0963621,26.272737 C76.0891146,26.272737 75.2696591,25.4487564 75.2696591,24.4366739 C75.2696591,23.9433503 75.457451,23.48256 75.7983021,23.1377067 C75.9625464,22.956703 95.9144046,1.03988364 96.14105,0.789081212 L96.14105,0.789672727 C96.2911657,0.62345697 96.7220863,0.207030303 97.3614029,0.111796364 C97.42557,0.102332121 97.5338889,0.0940509091 97.5992334,0.0940509091 C97.8211693,0.0940509091 98.0460486,0.140189091 98.2691618,0.231873939 C99.1468976,0.588557576 99.5607462,1.57697939 99.2510956,2.58018909 L94.8376918,16.6860509 L104.123677,16.6860509 C105.130924,16.6860509 105.949791,17.5100315 105.949791,18.5215224 C105.949791,18.9976921 105.775539,19.443103 105.457647,19.7826327 L84.9842101,43.2391661 C84.6539554,43.6337067 84.1406184,43.8720873 83.593726,43.8720873 L83.593726,43.8720873 Z M78.9566203,23.6109188 L87.4337464,23.6109188 C87.8428854,23.6109188 88.2296543,23.8007952 88.4798473,24.1261285 C88.7312176,24.4508703 88.8189323,24.8743952 88.7170891,25.2724848 L85.2355805,38.9145988 L102.313457,19.3478691 L93.0327704,19.3478691 C92.6106802,19.3478691 92.2144923,19.1461624 91.964888,18.8042667 C91.714695,18.4629624 91.6422863,18.0222836 91.7688545,17.6176873 L95.621826,5.30470788 C93.1899505,7.97539879 88.4021403,13.235743 78.9566203,23.6109188 L78.9566203,23.6109188 Z" id="Fill-5" fill="#0080ED"></path>
                    <path d="M230.514095,43.8229915 C230.114963,43.8229915 229.737614,43.6419879 229.486243,43.3314424 L220.86842,32.6711564 C220.676508,32.4339588 220.571721,32.1376097 220.571721,31.8317964 L220.571721,1.3664 C220.571721,0.631738182 221.16512,0.0354909091 221.896272,0.0354909091 L239.13074,0.0354909091 C239.862481,0.0354909091 240.455291,0.631738182 240.455291,1.3664 L240.455291,31.8317964 C240.455291,32.1376097 240.351093,32.4339588 240.159181,32.6711564 L231.541946,43.3314424 C231.290576,43.6419879 230.913226,43.8229915 230.514095,43.8229915 L230.514095,43.8229915 Z M223.220823,31.3597673 L230.514095,40.3815564 L237.806189,31.3597673 L237.806189,2.69730909 L223.220823,2.69730909 L223.220823,31.3597673 L223.220823,31.3597673 Z" id="Fill-6" fill="#26D784"></path>
                    <path d="M239.13074,12.4691394 L221.896272,12.4691394 C221.16512,12.4691394 220.571721,11.8728921 220.571721,11.1382303 C220.571721,10.4035685 221.16512,9.80732121 221.896272,9.80732121 L239.13074,9.80732121 C239.862481,9.80732121 240.455291,10.4035685 240.455291,11.1382303 C240.455291,11.8728921 239.862481,12.4691394 239.13074,12.4691394" id="Fill-7" fill="#26D784"></path>
                    <path d="M227.316923,38.5721115 L233.494629,38.5721115 L230.485838,42.4920824 L227.316923,38.5721115" id="Fill-8" fill="#26D784"></path>
                </g>
            </g>
        </g>
    </g>
</svg>